<?xml version="1.0" encoding="utf-8"?>
<!-- Generator: Adobe Illustrator 26.0.3, SVG Export Plug-In . SVG Version: 6.00 Build 0)  -->
<svg version="1.0" id="Layer_1" xmlns="http://www.w3.org/2000/svg" xmlns:xlink="http://www.w3.org/1999/xlink" x="0px" y="0px"
	 viewBox="0 0 1047 748.8" style="enable-background:new 0 0 1047 748.8;" xml:space="preserve">
<style type="text/css">
	.st0{fill:#D01417;}
	.st1{fill:#FFFFFF;}
	.st2{fill:#14120E;}
</style>
<path class="st0" d="M635.9,375.2c-76.9,0-153.7-0.2-230.6,0c-2,0.1-4,0-6.1-0.2c-2.1-0.2-4.2-0.9-6-2c-1.7-1.1-2.8-1.1-4.5-2.1
	c0-0.2-0.1-0.9-0.4-1.2c-1.1-0.7-2.2-1.3-3.4-1.9c-1.1-2-2.5-3.9-3.9-5.6c0.3-1.2-2.5-4.5-2.9-5.7c-0.1-0.3-0.6-5.3-0.6-5.7
	c0.6-81.5,0.1-163.2,0-244.8c-0.1-1.5,0-3.1,0.2-4.6c0.6-2.1,1.5-4.7,2-6.8l0.9-0.2c1.5-2.2,2.8-4.6,4.9-6.4
	c1.1-0.8,2.4-2.1,3.5-2.8l1.1,0.1c0-0.4,0.1-0.9,0.1-1.3c1.1-0.2,2.1-0.3,3.2-0.3c0.1-0.4,0.2-0.8,0.3-1.1c1.9-0.4,3.8-0.7,5.8-0.7
	c83,0.1,166,0,249-0.1c1.3,0,2.7,0.1,4,0.2c1.6,0.6,3.1,2.6,5.2,2.6c2.5,1.7,4.9,3.7,7.2,5.8c0.7,0.7,4.2,5.5,4.4,6.5
	c0,1.5,0.4,2.9,1.2,4.1c0.2,1.5,0.4,3.7,0.4,5.1c0.1,82.3,0.1,164.6,0,246.9c0,1.3-0.1,2.6-0.2,3.8c-0.5,0.3-1,0.7-1.4,1.1
	c-0.5,0.9-0.7,2-0.7,3c-2.1,2.1-3.8,4.5-5.1,7.2l-1.5,0c-1,1.1-1.8,2.2-2.7,3.3c-1.1,0.4-2.2,0.5-3.4,0.4c-1.3,1.6-3.2,2.8-5.3,3.2
	C645.8,375.1,640.8,375.2,635.9,375.2z"/>
<path class="st1" d="M593.4,296.4c-7.4,0-14.8,0-22.3,0c-0.7-0.7-0.8-0.4-0.8-1.5c0.1-37.3,0.1-74.5,0.1-111.8c0-0.9,0-1.9,0-2.8
	c-0.3-0.5-0.6-1-1.1-1.1c-1.6-0.1-3.3-0.1-5-0.1c-36.9,0.1-73.8,0.1-110.7,0c0-7.4,0.1-14.8,0-22.2c0-0.8,0-1.6,0.1-2.4h140.8
	c0.2,1.5,0.3,3,0.3,4.6c-0.2,43.1-0.3,86.3,0,129.5c0,2.6-0.2,5.2-0.3,7.8L593.4,296.4z"/>
<path class="st1" d="M551.7,296.5c-7.7,0-15.4-0.1-23.1,0.1V223c-1-0.3-2-0.5-3.1-0.6c-23.8,0.2-47.6,0-71.4,0
	c-0.2-0.6-0.3-1.2-0.3-1.8c0.1-7.6,0-15.2,0-22.8H553c0,30.5,0,60.9,0,91.4c0,2.4,0,4.8-0.1,7.2L551.7,296.5z"/>
<path class="st1" d="M455.2,296.4c-0.3-0.5-0.5-0.9-0.6-1.5c0.1-16.5,0.1-33,0-49.5c0.2-0.6,0.4-1.2,0.7-1.7c2-0.1,3.8-0.1,5.8-0.1
	c14.8,0.3,29.7,0,44.6,0c0.6,0,1.3,0.1,1.9,0.3c0.1,1.3,0.1,2.5,0.1,3.7c-0.1,15.3,0.2,30.7,0,46c0,0.8,0,1.3-0.1,2.1
	c-0.2,0.5-0.7,0.8-1.2,0.9C489.4,296.5,472.3,296.4,455.2,296.4z"/>
<path class="st2" d="M210.7,551.3c3.7,0.4,7.4,0.3,11-0.2c5.4-0.7,10.6-2.4,15.5-4.9v-34.8c-2.3,1.4-4.7,2.6-7.2,3.7
	c-3,1-6.1,1.3-9.2,1.1c-0.4,0-5.2-1-5.5-1.1c-2-1.1-3.9-2.3-5.7-3.8c-0.2-0.1-3.5-4.3-3.6-4.6c-1.5-3-2.7-6-3.7-9.2
	c-0.7-2.7-1.1-5.5-1.4-8.2c-0.2-6.1-0.2-12.2,0-18.4c0.3-2.8,0.8-5.5,1.4-8.3c0.8-2.8,1.9-5.6,3.2-8.2c1.7-3.1,4.1-5.8,7.1-7.8
	c3-1.9,6.5-2.9,10.1-2.8c6.6,0.1,8.4,1.4,14.6,4.2l-0.1-33.4c-2.3-1-4.7-1.8-7.2-2.5c-2.7-0.6-5.5-1-8.3-1.3
	c-4.6-0.4-9.2-0.5-13.8-0.1c-8.4,0.9-16.3,4.2-23,9.4c-3.2,2.6-6.2,5.4-8.8,8.6c-2.6,3.1-5,6.5-6.9,10.1c-1.8,3.6-3.4,7.3-4.8,11
	c-1.6,4.8-2.8,9.7-3.5,14.7c-1.4,11-1.3,22,0.1,33c0.8,5,2,9.9,3.5,14.7c0.9,2.8,2.1,5.6,3.5,8.2c1.7,3.2,3.5,6.2,5.6,9.2
	c6.6,8.8,15.6,15.6,26,19.3C203.2,550.2,206.9,551,210.7,551.3z"/>
<path class="st2" d="M356.2,549h38c0.1-0.6,0.2-1.3,0.3-1.9c0-44.7,0-89.4,0-134.1h-37c-0.5,0-1.1,0-1.6,0.1
	c-0.1,0.6-0.2,1.3-0.2,1.9c0.2,44,0,88.1,0,132.2C355.8,547.7,356,548.4,356.2,549z"/>
<path class="st2" d="M462.2,549.1h1.5c0.3-1.2,0.4-2.5,0.4-3.8c-0.1-31.8,0-63.6,0-95.5c0-0.5,0-1.1,0.1-1.7l22.2,0.2
	c0-0.7,0-1.5,0-2.2c0-11,0-22.1,0-33.1h-83.3c-0.1,0.6-0.2,1.3-0.2,2c0,11.1,0.1,22.2,0,33.3h22.2l0.1,100.8
	C437.6,549,449.9,549,462.2,549.1z"/>
<path class="st2" d="M301.9,549H339c0.6-0.5,0.9-1.1,1-1.9c0-44.1,0-88.1,0-132.2c0-0.7-0.1-1.3-0.2-2c-12.1,0-24.3,0.4-36.4,0
	c-1.6-0.1-1.5,0.5-2.2,1.1c0,0.6,0,1.2,0,1.8c0.1,15.1,0.1,30.3-0.1,45.4h-14.7c0-14.5,0-29,0-43.5c0-1.4-0.1-2.7-0.1-4.1
	c-0.7-0.4-1.5-0.6-2.3-0.6c-12.1,0.1-24.2,0.1-36.3-0.1c-0.1,1-0.1,2-0.1,3c0.1,44.4,0.1,88.8,0,133.1l38.1,0.1
	c0.5-1.2,0.7-2.5,0.7-3.8c-0.1-16.3-0.1-32.7,0-49.1h14.7c0.1,17,0,33.9,0,50.9C301.2,547.8,301.5,548.5,301.9,549z"/>
<path class="st2" d="M427.6,666.7l3-0.1c0.3-0.5,1.1-2.4,1.4-2.9c8.8-23.1,18.2-46.2,26.6-69.4c1.3-2.7,2.8-5.4,4.5-7.9
	c1.8-1.9,4.3-3,6.9-3.2l0.1-3.4h-25.4l-0.1,3.1c2.3,0.3,4.6,1.1,6.6,2.4c1.1,0.7,2.4,2.6,1.9,4.1c-3.8,12.2-8.4,23.8-12.7,35.8
	c-0.1,0.3-0.6,0.7-0.7,0.9c-2.4,5.4-4.2,11-6.2,16.5c-0.3,1-0.9,1.8-1.3,2.7c-7.4-17.8-16-36.8-21.9-55c-0.7-2.3,0.2-3.7,1.4-5.6
	c2.3-0.8,4.7-1.4,7.1-1.6l-0.2-3c-0.7-0.2-1.5-0.3-2.3-0.3c-10.3-0.1-20.5-0.1-30.8,0l-0.1,3.4c2.3,0.1,4.5,0.6,6.5,1.6
	c1.3,1,2.5,2.3,3.6,3.6C406.3,614.5,417,640.6,427.6,666.7z"/>
<path class="st2" d="M653.1,666.5c7.4,1.2,14.7,0.2,21.1-4.5c3.4-2.5,4.2-4.5,6.7-7.5c1.3-1.5,2.7-6.3,2.8-8.3
	c0.4-5-0.1-6.8-1.3-11.5c-1.1-4.3-4.7-8.2-8.2-10.8c-8.8-6.3-18.6-10.8-27.4-17.3c-1.8-1.7-3.4-3.5-4.9-5.4
	c-0.8-1.5-1.6-4.7-1.2-6.4c1.2-4.8,2.4-6.2,6.4-9.2c2.7-2,8.3-2,11.5-1.2c2.9,0.8,5.7,2.2,8.1,4c0.2,0.1,3.6,3.7,3.8,4
	c3.2,5.4,3.6,9.5,5,15.4c0.9,0.3,1.9,0.2,2.8-0.3c0.3-0.6,0.4-1.2,0.5-1.8c0.1-9.2,0-18.4,0-27.7l-2.7-0.4c-0.6,1.1-1.9,4.1-2.8,4.5
	c-0.6,0.3-1.2,0.4-1.8,0.2c-3.4-1.1-6.7-2.3-10.1-3.7c-0.4-0.1-7.1-1-7.3-1c-3.7,0.5-7.5,0.6-11,2.2c-7.5,3.4-12.5,10.7-12.9,18.9
	c0.1,2.8,0.4,5.6,0.9,8.3c1.3,3.2,3.2,6.1,5.4,8.8c1.6,1.6,3.4,3.1,5.2,4.5c8.1,5.2,17.7,10.3,25.2,16.1c5,3.8,7.1,11.1,4,17
	c-1,1.8-2.1,3.8-3.9,4.6c-6.3,2.7-10.7,3.6-17.5,1.3c-3-1-8.2-4.5-10.1-7.3c-3.3-5-3.4-8.8-5-14.2c-0.2-0.8-0.7-0.9-1.4-1.2
	l-1.9,0.3l-0.1,29.6l3.5-0.2l0.3-2.9c0.7-0.5,1.9-1.9,2.8-1.6C642.7,663.4,647.8,665.4,653.1,666.5z"/>
<path class="st2" d="M207.9,666.5c4.9,0.6,9.8,0.7,14.7,0.1c7.5-1.1,12.3-3.6,17.6-9.3c1.7-1.9,3-4.1,4-6.4c1.3-3.6,2.1-7.2,2.5-11
	c0.9-15.6,0.3-31.2,0.3-46.8c0-0.1,0.7-4.4,0.8-4.6c0.5-1.6,2.6-4.3,4.2-4.7c5.1-1.5,11.1-0.9,15.6,2.5c1.7,1.3,5,4.6,5,6.8
	c-0.3,20.8,0.3,41.6-0.2,62.4c-0.2,1.5-0.9,3-2,4.1c-2.1,2-4.6,1.8-7.3,1.9c-0.6,0.1-1.1,0.2-1.6,0.4v1.8c0.2,0.2,0.5,0.4,0.7,0.7
	c0.2,0.3,0.6,0.5,0.9,0.5c6.4,0,12.9,0,19.3,0c2.4,0,4.6,0,7.1-0.1c1-0.7,0.6-2.5,0.2-3.4c-2.4,0.2-6.5,0.2-8.2-1.6
	c-1.3-1.5-2.2-3.3-2.4-5.3c-0.4-15.6-0.2-31.2-0.2-46.8c-0.4-0.9-0.3-1.9,0.1-2.8c-0.2-1-0.3-2-0.3-3l1.2-1.2
	c16.3,21,32.2,42.3,48.4,63.3c1.1,1.5,1.7,2.1,3.7,2.1l1.2-1.3c-0.2-0.4-0.4-0.8-0.4-1.2c0-23.5,0-47.2,0.1-70.7
	c0-2.4,0.9-6.6,2.7-8.3c1.9-1.9,6.1-1.7,8.8-1.6l-0.1-3.3l-28.6,0.1v3.2c2.5,0.1,5.8-0.3,8.1,1.3c1,0.7,2.8,2.9,2.8,4
	c0.7,17.5,0.3,35.1,0.2,52.7c-16-20.2-31.6-40.6-47.1-61.2h-50.3v3.3c3,0.2,6.4-0.3,9.1,1.5c1,1.1,1.6,2.4,1.8,3.8
	c1.2,14.7,1,31.1,0.5,45.9c-0.2,3.4-0.5,6.8-1.1,10.1c-0.9,5.2-4.1,9.6-8.7,12.2c-0.5,0.3-4.9,2.5-5.5,2.7c-3,0.6-6.1,1-9.2,1.1
	c-3.1-0.2-6.2-0.9-9.2-2c-1.7-0.9-3.3-2.1-4.6-3.5c-1.7-2-2.9-4.3-3.8-6.8c-0.6-2.1-1-4.3-1.1-6.5c-0.8-17.7-0.9-35.5-0.1-53.2
	c0.3-1,0.8-2,1.4-2.9c0.2-0.3,0.5-0.6,0.8-0.8c2.3-1.4,6.2-1.8,8.9-1.6V580c-11.6-0.5-23.4-0.4-35-0.1c-0.6,1-0.7,2.2-0.3,3.2
	c3.3-0.1,7.3-0.2,9.6,2.5c0.6,0.8,1.1,1.8,1.4,2.7c0.7,16.5,0.2,33,0.5,49.6c0.2,3.1,0.6,6.1,1.1,9.2c0.7,2.2,1.6,4.4,2.7,6.4
	C193.2,661.2,199.1,665,207.9,666.5z"/>
<path class="st2" d="M380.5,664.8c0.3,0.1,0.6,0.1,0.9,0.1c0.4-0.4,0.8-0.8,1.2-1.2c0-0.3,0-0.6,0.1-0.9c-0.4-0.5-0.8-1-1.3-1.4
	c-3,0.2-5.9-0.6-8.4-2.2c-1.5-1-1.8-4.8-1.8-6.5c0-20.2,0.1-40.4,0-60.6c0-1.4,0.9-5.7,1.8-6.5c2.8-2.9,5.7-2.5,9.5-2.2v-3.5h-34.8
	v3.5c3.1-0.3,9.9,0.1,10.5,4.2c2.9,17.7,0.5,42.1,0.6,60.6c0,2.2-0.2,9.5-1.6,11c-1.9,2-6.3,2.6-9,2.3c-0.1,0.1-0.2,0.3-0.3,0.4
	c-0.3,0.9-0.5,2-0.4,3c10,0,20,0.2,30,0C378.6,664.8,379.6,664.3,380.5,664.8z"/>
<path class="st2" d="M528.3,664.6c2.3,0,6.4,1.2,7.4-1.8c2.1-6.7,4.1-13.3,6.1-20h-3.3c-1.9,3.7-4.1,7.4-6.4,10.9
	c-2,1.7-4.2,3.3-6.5,4.6c-7.6,1-15.3,1.3-22.9,0.9c-1.8-0.1-3.6-0.5-5.3-1c-1.9-7.8-0.8-25.2-0.7-34c0-0.4,0.8-0.9,1.1-1.1
	c4.7,0,9.4,0,14.1,0c2.8-0.1,5.6,0.3,8.3,1.2c1,0.5,1.9,1,2.8,1.7c1.7,2.3,1.5,5.6,2.2,8.3c0.1,0.5,0.3,0.9,0.5,1.4l2.3-0.1
	c0.4-0.3,0.6-0.8,0.7-1.3c0.1-9.5,0-19,0-28.5l-3.3-0.5c-0.6,3.1-0.6,5.9-2.3,8.8c-0.9,1.5-2.3,2.5-3.9,3c-7.5,0.8-15.1,0.8-22.6,0
	v-30.9c0.4-0.4,0.9-0.7,1.5-0.7c6.1-0.1,21.6-0.9,26.6,0.7c0.9,0.3,3.5,1.3,4.1,2.2c2.4,3.7,3.2,6.4,3.8,10.8
	c0.8,0.3,1.7,0.4,2.6,0.2c0.6-1.1,0.8-2.4,0.6-3.7c-0.3-5.4-0.7-10.7-1.1-16h-61.7v3.5c2.8,0,6.1-0.4,8.5,1.1c1.3,1,2.1,2.4,2.4,4
	c0.6,19.3,0.2,38.5,0.2,57.8c0,2.8,0.5,11.1-1.6,13c-2.3,2-5.2,2.5-8.4,2.2c-0.6,0.5-1.1,1.1-1.5,1.8c0.2,0.4,1.2,1.7,1.5,1.7
	C492.2,665,510.2,665,528.3,664.6z"/>
<path class="st2" d="M695.3,664.8c10.1,0,20.2,0,30.3,0c0.6-0.1,1.2-0.5,1.5-1.1v-1.9c-3.1-0.3-6-0.6-8.8-2.1
	c-0.3-0.2-0.7-0.3-1-0.5c-0.2-0.3-0.4-0.6-0.5-1c-0.5-1.5-0.8-3-1-4.6c-0.2-19,0-37.9-0.1-56.9c0-2.9,0.2-10.2,2.5-12.1
	c2-1.6,6.5-1.4,9-1.4l0.1-3.3l-35-0.2l-0.2,3.5c3-0.2,6.1,0.3,8.9,1.4c0.9,1.1,1.6,2.4,2,3.8c1.5,19.8,0.1,40.6,0.4,60.6
	c-0.1,3.1-0.4,6.2-1.1,9.2c-2.1,3.1-6.3,3.7-9.7,3.2c-0.1,0.2-0.2,0.3-0.2,0.5c-0.3,1.1-0.4,2.2-0.3,3.3l1.5-0.6
	C694.1,664.5,694.7,664.6,695.3,664.8z"/>
<path class="st2" d="M780.7,664.6c0.4,0,0.9,0.7,1.2,0.3l1.3-1.3c0-0.8-0.3-1.6-0.7-2.3c-2.9,0.1-7-0.1-9.2-2.3
	c-0.2-0.2-0.2-0.6-0.3-1c0-0.2-0.9-3.6-0.9-3.7c-0.6-22.7-0.1-45.5-0.2-68.2c1.4,0,2.8,0,4.2-0.1c4.7-0.2,13.1-0.2,16.5,3.5
	c0.9,1,1.7,2.1,2.2,3.4c0.7,2.6,1.3,4.9,1.9,7.5c1.1,0.4,2.3,0.3,3.4-0.1l-1.3-20.6c-0.8,0-1.7-0.1-2.5,0c-21,0.1-42-0.1-63,0.1
	c0.1,6.2-0.2,12.5-0.9,18.7c-0.1,0.7,0.1,1.3,0.4,1.9c0.8,0.3,1.7,0.4,2.5,0.2c1-4.4,2-6.3,3.6-10.4c0.4-0.9,3.4-3.2,4-3.3
	c5.1-1,10.4-1.2,15.6-0.8c0.5,0,0.9,1,1.1,1.3c0,22,0.1,44.1-0.1,66.1c0,1.5-0.9,4.8-2,5.8c-2,1.8-5.7,2.2-8.3,2.1
	c-0.3,0.2-0.6,0.5-0.9,0.8c-0.6,0.8-0.1,2,0,2.9l1.8-0.7c0.3,0.2,0.6,0.3,0.9,0.3C761.1,664.9,770.9,665,780.7,664.6z"/>
<path class="st2" d="M859.6,664.5c0.3,0.1,0.6,0.2,0.9,0.4c0.3-0.1,0.6-0.3,0.9-0.4c0.8-0.5,1.1-1.6,0.5-2.5
	c-0.1-0.2-0.3-0.4-0.5-0.5c-3.3,0-7.6-0.2-9.5-3.3c-0.9-9.8-1.1-19.6-0.8-29.4c6.9-12.9,15.6-27.2,23.8-39.5
	c2.5-3.6,7.3-6.4,11.8-6.1l0.1-3.4c-0.5-0.1-1-0.2-1.6-0.2c-8.9,0.1-17.8,0.1-26.6,0l-0.3,3.4c2.5,0,5.5,0.1,7,2.5
	c1.1,1.6,1.3,3.7,0.5,5.5c-4.3,10-12.1,21.2-17.9,30.7c-5.8-9.2-16-23.8-19.6-33.5c-0.5-1.2,1.6-3.6,2.8-4.2c2-1,4.3-1.3,6.5-1
	l-0.1-3.4l-1.8-0.1c-11,0-22,0.1-33,0l-0.1,3.3c1.9,0.2,3.8,0.8,5.6,1.6c1.7,1.1,3.3,2.3,4.7,3.7c8.3,13.9,17.3,27.4,25.4,41.5
	c0.4,0.5,0.6,1.2,0.5,1.8c0,7.3,0.1,14.7-0.1,22c0,1.3-1,5-1.9,5.6c-3.2,2-4.5,2.3-8.4,2.3c-0.3,0.2-0.6,0.4-0.9,0.7
	c-0.2,0.6-0.3,1.2-0.5,1.8c1,0.5,2.1,0.8,3.2,0.8c9.5,0,19,0.2,28.5,0C859,664.7,859.4,664.6,859.6,664.5z"/>
<path class="st2" d="M885.3,549.1h1.3c0.4-0.9,0.5-1.9,0.3-2.9c-9.2-42.9-19.2-85.9-28.2-129c-0.4-1.4-0.8-2.8-1.5-4.2h-42.9
	c-9.3,39.4-18,79.7-26,119.4c-0.7,3.5-1.8,7.7-2.8,11.2c-8.3-17.8-16.3-35.5-24.3-53.5c-0.3-0.7-0.1-1.4,0.5-1.8
	c3.2-1.4,6.1-3.2,8.9-5.3c2-1.8,3.9-3.7,5.6-5.7c7.2-10,7.9-20.2,6.1-32.1c-0.6-2.8-1.4-5.6-2.5-8.3c-1.3-2.5-2.7-5-4.3-7.3
	c-3.1-3.5-6.6-6.6-10.4-9.2c-4.2-2.8-8.8-4.7-13.8-5.7c-1.4-0.3-8-1.6-9.2-1.6c-16.2-0.4-32.5,0-48.7-0.1c-0.6,0-1.1,0.1-1.7,0.1
	c0,0-0.1,1.8-0.1,1.9c0,42.2,0.5,84.5,0,126.7c0,0.3-0.3,0.6-0.2,0.9c0.1,2.1,0.4,4.4,0.5,6.5c11.8,0,23.7-0.2,35.5,0.1
	c1.1,0,2.1-0.4,3-1c0-14.4-0.2-28.8,0-43.2c0-0.6,0.5-2.2,0.8-1.6c0.7,1.4,1.3,2.9,1.8,4.4c4.5,13.8,8.8,27.6,13.5,41.3l75.7,0.1
	c1-6.6,2-13.1,2.9-19.8c6.6-0.2,13.2-0.3,19.8-0.2c0.6,0.1,1.3,0.1,1.9,0.3c0.4,4.8,1,10.3,1.7,15c0.2,1.6,0.6,3.1,1.2,4.6
	C861.6,549,873.5,548.9,885.3,549.1z M730.5,473c-0.2-1-0.2-2-0.2-3c-0.1-9.2,0.1-18.6,0.1-27.8c8.3-0.5,12.5,4.5,13.3,12.2
	c0.4,4.2-0.1,8.5-1.6,12.5c-1.2,3.6-5.9,5.1-9.2,6C732.2,473,731.3,473,730.5,473z M841.3,500.7c-4,0-8,0-11.9,0
	c1.7-14.6,4.7-29.1,6.2-43.7c0.1-0.7,0.8,1.3,0.9,2c2.2,13.9,4.2,27.8,6.3,41.7H841.3z"/>
<path class="st2" d="M649.1,549c12,0,24.1,0.1,36.1,0c0.5-0.1,1-0.2,1.5-0.3c-0.1-1.2-0.3-2.3-0.5-3.5
	c-8.6-37.8-16.9-75.9-24.8-113.8c-1.2-6-2.8-11.8-3.8-17.8c-0.9-0.4-1.8-0.6-2.7-0.7c-13.7-0.1-27.4,0.1-41.1-0.1
	c-8.1,40.5-17.3,81.4-26.6,121.7c-7.9-19.6-15.7-39.3-23.1-59c9-19.6,17.5-39.5,26.7-59.1c0.5-1.1,0.8-2.2,1-3.4h-39.2
	c-0.6,0.9-1.1,1.8-1.5,2.9c-5.4,16.2-11.8,32.5-17.7,48.6c-0.2,0.6-0.5,1.1-0.7,1.7c-0.1-0.9-0.1-1.8-0.1-2.6
	c0.1-15.9,0.1-31.8,0.1-47.7c0-0.8-0.1-2.4-0.1-3l-38.7,0c-0.1,1.3-0.2,2.5-0.2,3.8c0.2,42.8,0.2,85.7,0,128.5
	c0,1.3,0.2,2.5,0.4,3.8l37.8-0.1c0.4-0.5,0.7-1.2,0.7-1.8c0-17.4,0.2-34.9-0.2-52.3c0-0.3,0-0.6,0-0.9c0-1.1,0.2-2.4,0.5-1.4
	c5.8,18.4,11.7,36.7,17.4,55.1c0,0.2,0.2,0.3,0.4,0.4c0.4,0.4,0.9,0.9,1.5,0.9c23.1,0.2,46.2,0,69.4,0.1c0.5-0.5,0.9-1.2,1-1.9
	c1-5.8,1.9-12.2,2.6-18h21.2C647,535.8,648,542.4,649.1,549z M628.7,500.6c2.4-14,4.2-28.1,6.1-42.2c0.8,0.6,1.4,1.5,1.8,2.4
	c2,13,3.5,26,5.8,39c-0.4,0.3-0.9,0.5-1.3,0.8L628.7,500.6z"/>
<path class="st2" d="M623.7,664.8h1.2c0.2-1.1,0.1-2.3-0.2-3.4c-5.9-0.4-11.4-3.2-15.2-7.8c-7.5-9.5-13.5-20.3-20.7-30
	c3.2,0,8.5-2.6,11.1-4.5c5.2-4,8.3-10.2,8.3-16.8c-0.2-2.2-0.5-4.3-0.9-6.4c-2.5-6.5-5.8-10.2-12-13.4c-2.4-1.2-7.5-2.1-10.1-2.3
	c-13.3-0.8-26.6-0.4-39.9-0.3v3.5c2.3-0.3,4.6-0.2,6.9,0.4c0.7,0.2,2.6,1.2,2.9,2c2,4.9,1.8,7.6,1.8,12.8c0,18.3,0.6,37.3-0.1,55.6
	c0,2.2-1,4.3-2.8,5.7c-2.6,1.8-5.4,1.8-8.7,1.7l-0.1,3.1c11.5,0.5,23.3,0.3,34.8,0.3c0.5-1.1,0.5-2.3-0.2-3.4c-3,0.2-8.3,0-9.8-3.3
	c-0.4-1.2-0.7-2.4-0.9-3.7c-0.4-9.6-0.3-19.2-0.2-28.8l6.9-0.2c0.8,0.5,1.4,1.2,2,2c7.6,12.3,16.4,24.8,24.8,36.5
	c0.6,0.4,1.2,0.7,1.8,0.9c0.3-0.1,0.6-0.2,0.9-0.3C611.4,664.6,617.6,664.9,623.7,664.8z M569.1,621.1l-0.2-33.5
	c7.4-2.4,11.4-2.3,18.3,1.1c0.3,0.1,3.4,3.5,3.6,3.8c3.9,5.8,3.6,13.1,1,19.3c-1.4,2-3,3.8-4.9,5.4c-4.2,2-6.1,3.1-10.9,3.9
	C573.8,621.3,571.5,621.4,569.1,621.1z"/>
</svg>
